# xmcd
#
# Track frame offsets: 
#        150
#        11370
#        23630
#        35240
#        45322
#        54665
#        67492
#        81872
#        98090
#        106975
#        117482
#        129930
#        139575
#        154282
#        167547
#        177772
#
# Disc length: 2513 seconds
#
# Revision: 3
# Processed by: cddbd v1.5.2PL0 Copyright (c) Steve Scherf et al.
# Submitted via: ExactAudioCopy v1.0b1
#
DISCID=d009cf10
DTITLE=Willie Nelson - Country Winners
DYEAR=1987
DGENRE=Country
TTITLE0=The Party's Over
TTITLE1=Born To Loose
TTITLE2=San Antonio
TTITLE3=Mr. Record Man
TTITLE4=Texas In My Soul
TTITLE5=I Just Can't Let You Say Goodby
TTITLE6=I Walk Alone
TTITLE7=Streets Of Laredo
TTITLE8=Columbus Stockade Blues
TTITLE9=Heartaches By The Number
TTITLE10=Seasons Of The Heart
TTITLE11=San Antonio Rose
TTITLE12=What Now My Love
TTITLE13=Fraulein
TTITLE14=Go On Home
TTITLE15=I'd Trade All Of My Tomorrows (For Just One Yesterday)
EXTD=
EXTT0=
EXTT1=
EXTT2=
EXTT3=
EXTT4=
EXTT5=
EXTT6=
EXTT7=
EXTT8=
EXTT9=
EXTT10=
EXTT11=
EXTT12=
EXTT13=
EXTT14=
EXTT15=
PLAYORDER=
